{"title":"Frankensteins.Army.2013 WEBRip XViD juggs","uid":8751930,"size":739845994,"categoryP":"video","categoryS":"movies","magnet":"?xt=urn:btih:ce558a7c7c7db441fdf8b0611b02f36d696bc127&amp;dn=Frankensteins.Army.2013+WEBRip+XViD+juggs&amp;tr=udp%3A%2F%2Ftracker.openbittorrent.com%3A80&amp;tr=udp%3A%2F%2Fopen.demonii.com%3A1337&amp;tr=udp%3A%2F%2Ftracker.coppersurfer.tk%3A6969&amp;tr=udp%3A%2F%2Fexodus.desync.com%3A6969","seeders":9,"leechers":1,"uploader":"juggs99","files":4,"time":1375050752,"description":"Format                                   : AVI\nFormat/Info                              : Audio Video Interleave\nFile size                                : 697 MiB\nDuration                                 : 1h 24mn\nOverall bit rate                         : 1 160 Kbps\nWriting library                          : VirtualDub build 32842/release\n\nVideo\nID                                       : 0\nFormat                                   : MPEG-4 Visual\nFormat profile                           : Advanced Simple@L5\nFormat settings, BVOP                    : 2\nFormat settings, QPel                    : No\nFormat settings, GMC                     : No warppoints\nFormat settings, Matrix                  : Default (H.263)\nMuxing mode                              : Packed bitstream\nCodec ID                                 : XVID\nCodec ID/Hint                            : XviD\nDuration                                 : 1h 24mn\nBit rate                                 : 1 023 Kbps\nWidth                                    : 640 pixels\nHeight                                   : 352 pixels\nDisplay aspect ratio                     : 16:9\nFrame rate                               : 23.976 fps\nColor space                              : YUV\nChroma subsampling                       : 4:2:0\nBit depth                                : 8 bits\nScan type                                : Progressive\nCompression mode                         : Lossy\nBits/(Pixel*Frame)                       : 0.189\nStream size                              : 615 MiB (88%)\nWriting library                          : XviD 64\n\nAudio\nID                                       : 1\nFormat                                   : MPEG Audio\nFormat version                           : Version 1\nFormat profile                           : Layer 3\nCodec ID                                 : 55\nCodec ID/Hint                            : MP3\nDuration                                 : 1h 24mn\nBit rate mode                            : Constant\nBit rate                                 : 128 Kbps\nChannel(s)                               : 2 channels\nSampling rate                            : 48.0 KHz\nCompression mode                         : Lossy\nStream size                              : 76.9 MiB (11%)\nAlignment                                : Split accross interleaves\nInterleave, duration                     : 42 ms (1.00 video frame)\nInterleave, preload duration             : 500 ms\nWriting library                          : LAME3.99r\n &lt;a href=&quot;\nhttp://www.shotpix.com/photos/20130728137504332152221.png&quot; rel=&quot;nofollow&quot; target=&quot;_NEW&quot;&gt;\nhttp://www.shotpix.com/photos/20130728137504332152221.png&lt;/a&gt; &lt;a href=&quot;\nhttp://www.shotpix.com/photos/20130728137504332504116.png&quot; rel=&quot;nofollow&quot; target=&quot;_NEW&quot;&gt;\nhttp://www.shotpix.com/photos/20130728137504332504116.png&lt;/a&gt; &lt;a href=&quot;\nhttp://www.shotpix.com/photos/20130728137504332175311.png&quot; rel=&quot;nofollow&quot; target=&quot;_NEW&quot;&gt;\nhttp://www.shotpix.com/photos/20130728137504332175311.png&lt;/a&gt;","torrent":{"xt":"urn:btih:ce558a7c7c7db441fdf8b0611b02f36d696bc127","amp;dn":"Frankensteins.Army.2013+WEBRip+XViD+juggs","amp;tr":["udp%3A%2F%2Ftracker.openbittorrent.com%3A80","udp%3A%2F%2Fopen.demonii.com%3A1337","udp%3A%2F%2Ftracker.coppersurfer.tk%3A6969","udp%3A%2F%2Fexodus.desync.com%3A6969"],"infoHash":"ce558a7c7c7db441fdf8b0611b02f36d696bc127","infoHashBuffer":{"type":"Buffer","data":[206,85,138,124,124,125,180,65,253,248,176,97,27,2,243,109,105,107,193,39]},"announce":[],"urlList":[]}}